# xmcd
#
# Track frame offsets:
#	150
#	11353
#	29532
#	42807
#	56841
#	71215
#	83389
#	100839
#	121336
#	136342
#	146251
#	163575
#	180029
#
# Disc length: 2620 seconds
#
# Revision: 1
# Processed by: cddbd v1.5.1PL0 Copyright (c) Steve Scherf et al.
# Submitted via: dBpowerAMP V4.0
#
DISCID=9e0a3a0d
DTITLE=Pussycat - 2 in 1: First Of All cd 2
DYEAR=1976
DGENRE=Nederpop
TTITLE0=Georgie
TTITLE1=Pasadena
TTITLE2=Boulevard De La Madeleine
TTITLE3=What Did They Do To The People
TTITLE4=Mexicali Lane
TTITLE5=Take Me
TTITLE6=Smile
TTITLE7=Mississippi
TTITLE8=Delaney
TTITLE9=Do It
TTITLE10=Help Me Living On
TTITLE11=Just A Woman
TTITLE12=Bad Boy
EXTD=
EXTT0=
EXTT1=
EXTT2=
EXTT3=
EXTT4=
EXTT5=
EXTT6=
EXTT7=
EXTT8=
EXTT9=
EXTT10=
EXTT11=
EXTT12=
PLAYORDER=
